<?xml version="1.0" encoding="utf-8"?>
<!-- Generator: Adobe Illustrator 26.5.0, SVG Export Plug-In . SVG Version: 6.00 Build 0)  -->
<svg version="1.0" id="Layer_1" xmlns="http://www.w3.org/2000/svg" xmlns:xlink="http://www.w3.org/1999/xlink" x="0px" y="0px"
	 viewBox="0 0 585.81 431.1" style="enable-background:new 0 0 585.81 431.1;" xml:space="preserve">
<style type="text/css">
	.st0{clip-path:url(#SVGID_00000096776013903976195110000012418200973222092990_);}
	.st1{fill:#FC527E;}
	.st2{fill:#FFFFFF;}
	.st3{fill:#3C3C3C;}
</style>
<g>
	<defs>
		<rect id="SVGID_1_" x="51" y="156.69" width="483" height="117.2"/>
	</defs>
	<clipPath id="SVGID_00000159442050138158355820000016306873651268455865_">
		<use xlink:href="#SVGID_1_"  style="overflow:visible;"/>
	</clipPath>
	<g style="clip-path:url(#SVGID_00000159442050138158355820000016306873651268455865_);">
		<path class="st1" d="M114.5,178.2H71.64c-11.13-0.05-20.2,8.94-20.25,20.07c0,0.01,0,0.01,0,0.02v39.53
			c0.05,11.13,9.12,20.12,20.25,20.07c0,0,0,0,0,0h42.86c11.13,0.06,20.19-8.92,20.25-20.05c0-0.01,0-0.01,0-0.02v-39.53
			c-0.03-11.13-9.08-20.12-20.21-20.09C114.53,178.2,114.51,178.2,114.5,178.2z"/>
		<path class="st2" d="M72.09,243.99c-2.07-2.34-3.15-5.4-3-8.52c0.05-2.46,0.35-4.91,0.9-7.31l4.28-19.52c0-0.39,0.29-1.37,0.65-3
			c0.38-1.76,0.57-3.55,0.58-5.35c0.06-0.88-0.17-1.75-0.64-2.49c-0.21-0.26-0.48-0.47-0.79-0.61c-0.31-0.14-0.66-0.2-1-0.19
			c-1.78,0.15-3.47,0.85-4.83,2c-2.23,1.68-4.17,3.71-5.77,6c-0.23,0.37-0.55,0.68-0.92,0.91c-0.37,0.23-0.79,0.36-1.23,0.39
			c-0.33-0.01-0.66-0.1-0.95-0.26c-0.29-0.16-0.54-0.39-0.73-0.66c-0.49-0.58-0.75-1.32-0.74-2.08c0.12-1.76,0.8-3.43,1.93-4.78
			c4.7-6.38,10.18-9.57,16.49-9.57c2.41-0.11,4.74,0.81,6.44,2.52c1.74,2.08,2.59,4.76,2.38,7.46c0.01,2.14-0.15,4.27-0.48,6.38
			c-0.32,1.95-0.87,4.63-1.64,8l-2.72,12.46l-0.32,2.2c-0.23,1.06-0.42,2.05-0.55,3c-0.13,0.92-0.19,1.85-0.19,2.78
			c-0.05,1.27,0.4,2.5,1.26,3.44c0.93,0.91,2.21,1.39,3.51,1.31c3.28-0.25,6.32-1.83,8.41-4.37c3.52-4.15,6.18-8.95,7.85-14.13
			c2.76-8.1,4.61-16.49,5.51-25c0.13-1.7,0.61-3.35,1.42-4.85c0.44-0.52,1-0.91,1.64-1.15c0.64-0.24,1.33-0.31,2-0.22
			c0.68-0.06,1.37,0.04,2,0.3c0.62,0.25,1.17,0.64,1.62,1.13c0.87,1.44,1.22,3.13,1,4.79c-0.02,1.64-0.17,3.27-0.45,4.88
			c-0.29,2-0.74,4.79-1.32,8.39c-1.27,6.96-2.27,13.34-3,19.15c-0.3,1.94-0.48,3.9-0.52,5.87c-0.1,1.54,0.36,3.06,1.29,4.28
			c0.42,0.48,0.95,0.86,1.54,1.11c0.59,0.25,1.23,0.37,1.87,0.35c1.6-0.03,3.16-0.55,4.45-1.5c1.91-1.46,3.64-3.13,5.15-5
			c0.22-0.29,0.5-0.53,0.82-0.69c0.31-0.16,0.65-0.25,1-0.26c0.28,0,0.56,0.08,0.8,0.22c0.25,0.15,0.45,0.36,0.58,0.61
			c0.38,0.69,0.56,1.47,0.52,2.26c0.08,1.51-0.37,3-1.29,4.21c-1.95,2.55-4.35,4.73-7.09,6.41c-2.24,1.31-4.78,2-7.37,2
			c-3.19,0.2-6.33-0.84-8.76-2.91c-2.03-1.98-3.12-4.73-3-7.56c0.16-3.39,0.53-6.77,1.1-10.11c-1.71,5.7-4.7,10.93-8.73,15.31
			c-1.57,1.65-3.46,2.96-5.55,3.85c-2.1,0.92-4.36,1.4-6.65,1.42c-1.61,0.1-3.22-0.14-4.73-0.7
			C74.61,246.02,73.23,245.13,72.09,243.99z"/>
		<path class="st3" d="M177.13,203.15c-0.16,0.13-0.35,0.23-0.55,0.3c-0.2,0.06-0.4,0.08-0.61,0.06c-0.21-0.02-0.41-0.09-0.59-0.19
			c-0.18-0.09-0.34-0.23-0.47-0.39c-1.21-1.5-2.71-2.73-4.41-3.64c-2.35-1.32-5.02-2-7.72-1.95c-1.28,0-2.55,0.14-3.8,0.41
			c-1.19,0.25-2.33,0.68-3.38,1.28c-0.95,0.56-1.76,1.32-2.39,2.23c-0.57,0.97-0.88,2.07-0.87,3.2c-0.07,2.23,1.2,4.29,3.22,5.23
			c3.07,1.48,6.31,2.55,9.66,3.19c2.54,0.58,5.03,1.33,7.47,2.23c2.15,0.75,4.17,1.83,6,3.19c1.66,1.22,3.03,2.81,4,4.63
			c0.99,1.98,1.48,4.17,1.41,6.38c0.11,2.91-0.54,5.79-1.9,8.36c-1.21,2.23-2.92,4.14-5,5.59c-2.18,1.5-4.63,2.59-7.21,3.19
			c-2.72,0.63-5.51,0.94-8.31,0.92c-4.3,0-8.55-0.83-12.53-2.46c-3.49-1.38-6.61-3.57-9.11-6.38c-0.14-0.15-0.24-0.33-0.31-0.52
			c-0.14-0.39-0.11-0.82,0.09-1.18c0.09-0.18,0.22-0.34,0.38-0.47l5.51-4.66c0.33-0.26,0.74-0.38,1.15-0.34
			c0.41,0.03,0.8,0.23,1.07,0.54c1.48,1.73,3.27,3.18,5.28,4.27c2.66,1.5,5.67,2.27,8.73,2.24c1.37,0,2.75-0.14,4.09-0.42
			c1.26-0.24,2.46-0.7,3.57-1.34c1.03-0.61,1.9-1.45,2.54-2.46c0.66-1.19,0.99-2.53,0.94-3.89c0.07-2.51-1.42-4.81-3.74-5.77
			c-3.52-1.59-7.21-2.77-11-3.51c-1.9-0.48-3.83-1.06-5.76-1.73c-1.89-0.64-3.67-1.58-5.28-2.77c-1.59-1.18-2.91-2.68-3.87-4.41
			c-1.04-2.02-1.55-4.27-1.48-6.54c-0.18-5.2,2.34-10.12,6.67-13c2.05-1.46,4.33-2.54,6.76-3.2c2.54-0.58,5.15-0.84,7.76-0.76
			c4.02-0.02,8,0.78,11.69,2.36c3.03,1.19,5.71,3.1,7.82,5.58c0.25,0.32,0.37,0.72,0.34,1.13c-0.05,0.39-0.24,0.74-0.53,1
			L177.13,203.15z"/>
		<path class="st3" d="M249.09,217.54v2.23c0,0.41-0.17,0.81-0.47,1.09c-0.3,0.28-0.69,0.44-1.1,0.44h-41.61
			c-0.22,0-0.44,0.05-0.64,0.14c-0.2,0.08-0.39,0.21-0.53,0.38c-0.15,0.16-0.26,0.35-0.33,0.56c-0.07,0.21-0.1,0.43-0.07,0.65
			c0.58,3.94,2.5,7.57,5.44,10.26c3.48,3.16,8.02,4.88,12.72,4.83c3.44,0.08,6.85-0.77,9.85-2.46c2.13-1.24,4.03-2.85,5.6-4.75
			c0.26-0.32,0.64-0.52,1.05-0.57c0.41-0.05,0.82,0.06,1.14,0.31l5.38,4.28c0.16,0.13,0.29,0.28,0.39,0.46
			c0.1,0.18,0.16,0.38,0.18,0.58c0.02,0.2,0,0.41-0.06,0.6c-0.06,0.19-0.15,0.37-0.28,0.53c-2.62,3.2-5.92,5.77-9.66,7.53
			c-8.1,3.45-17.2,3.69-25.47,0.67c-3.5-1.31-6.69-3.34-9.38-5.94c-2.67-2.64-4.77-5.8-6.18-9.28c-1.55-3.81-2.31-7.89-2.25-12
			c-0.04-4.08,0.7-8.13,2.19-11.93c1.38-3.51,3.47-6.69,6.15-9.35c2.66-2.61,5.81-4.67,9.27-6.06c7.34-2.79,15.46-2.79,22.8,0
			c3.25,1.25,6.18,3.21,8.57,5.74c2.4,2.65,4.24,5.75,5.4,9.13C248.49,209.45,249.13,213.48,249.09,217.54z M236.02,213.07
			c0.22,0,0.44-0.04,0.64-0.13c0.2-0.09,0.38-0.22,0.53-0.38c0.14-0.17,0.25-0.36,0.32-0.57c0.06-0.21,0.08-0.42,0.06-0.64
			c-0.16-1.52-0.5-3.02-1-4.47c-0.66-1.85-1.68-3.55-3-5c-1.38-1.45-3.05-2.59-4.9-3.35c-2.17-0.85-4.49-1.26-6.82-1.21
			c-2.29-0.01-4.56,0.4-6.7,1.21c-2.01,0.77-3.85,1.9-5.44,3.35c-1.56,1.42-2.84,3.12-3.8,5c-0.73,1.37-1.24,2.84-1.52,4.37
			c-0.04,0.22-0.04,0.45,0,0.67c0.06,0.22,0.17,0.42,0.31,0.6c0.31,0.34,0.74,0.54,1.2,0.55L236.02,213.07z"/>
		<path class="st3" d="M262.75,196.35c0.04-1.53-0.03-3.07-0.23-4.59c-0.01-0.21,0.02-0.42,0.09-0.62c0.07-0.2,0.19-0.38,0.33-0.53
			c0.3-0.3,0.7-0.48,1.13-0.48h7.43c0.39,0,0.76,0.14,1.05,0.4c0.28,0.26,0.46,0.62,0.49,1c-0.03,1.16,0.05,2.33,0.23,3.48v4.53
			h0.35c1.54-3.25,3.97-6,7-7.94c3.07-2.03,6.69-3.08,10.37-3c1-0.01,2.01,0.05,3,0.19c0.39,0.04,0.75,0.24,1,0.54
			c0.25,0.29,0.38,0.67,0.36,1.06l-0.32,7.11c-0.01,0.22-0.07,0.43-0.17,0.62c-0.1,0.19-0.24,0.36-0.41,0.5
			c-0.17,0.14-0.37,0.24-0.58,0.3c-0.21,0.06-0.43,0.08-0.64,0.05c-1.07-0.16-2.14-0.25-3.22-0.26c-2.42-0.06-4.81,0.44-7,1.47
			c-1.92,0.96-3.6,2.32-4.93,4c-1.34,1.68-2.32,3.61-2.9,5.68c-0.66,2.19-0.99,4.47-1,6.76v27.76c0,0.21-0.03,0.41-0.11,0.6
			c-0.08,0.19-0.19,0.36-0.33,0.51c-0.15,0.14-0.32,0.26-0.51,0.34c-0.19,0.08-0.39,0.12-0.6,0.12h-8c-0.41,0-0.81-0.16-1.1-0.46
			c-0.15-0.14-0.26-0.32-0.33-0.51c-0.08-0.19-0.12-0.39-0.11-0.6v-42.25C262.88,200.63,262.81,198.71,262.75,196.35z"/>
		<path class="st3" d="M313.78,274.14h-8c-0.2,0-0.4-0.04-0.59-0.12c-0.19-0.07-0.37-0.19-0.51-0.34c-0.14-0.14-0.26-0.31-0.33-0.5
			c-0.08-0.19-0.12-0.39-0.11-0.6v-80.79c-0.01-0.2,0.03-0.4,0.11-0.59c0.15-0.38,0.46-0.68,0.84-0.83
			c0.19-0.08,0.39-0.12,0.59-0.11h7.83c0.4,0.01,0.78,0.18,1.05,0.47c0.28,0.28,0.43,0.66,0.43,1.06v7.18h0.35
			c1.96-3.13,4.72-5.68,8-7.37c3.78-1.98,8-2.97,12.27-2.87c3.92-0.06,7.82,0.7,11.43,2.23c3.37,1.49,6.4,3.66,8.89,6.38
			c2.5,2.71,4.45,5.89,5.73,9.35c2.7,7.43,2.7,15.57,0,23c-1.25,3.48-3.18,6.68-5.67,9.41c-2.48,2.73-5.51,4.91-8.89,6.38
			c-3.7,1.57-7.7,2.34-11.72,2.27c-3.94,0.02-7.82-0.87-11.36-2.59c-3.43-1.6-6.35-4.11-8.44-7.27h-0.35v35.1
			c-0.09,0.33-0.28,0.61-0.55,0.82C314.5,274.03,314.14,274.15,313.78,274.14z M352.42,217.89c0.01-2.56-0.39-5.1-1.19-7.53
			c-0.78-2.33-1.99-4.49-3.57-6.38c-1.61-1.89-3.61-3.42-5.86-4.47c-2.56-1.14-5.34-1.71-8.15-1.66c-2.6-0.03-5.18,0.51-7.55,1.57
			c-2.37,1.05-4.49,2.61-6.2,4.56c-1.67,1.87-2.98,4.03-3.86,6.38c-1.85,4.93-1.85,10.35,0,15.28c0.86,2.36,2.17,4.53,3.86,6.39
			c1.68,1.87,3.72,3.38,6,4.43c2.44,1.11,5.08,1.66,7.76,1.63c2.8,0.07,5.59-0.49,8.15-1.63c2.25-1.09,4.24-2.63,5.86-4.53
			c1.58-1.89,2.79-4.05,3.57-6.38c0.81-2.47,1.22-5.06,1.19-7.66H352.42z"/>
		<path class="st3" d="M390.84,170c0.03,0.95-0.15,1.89-0.52,2.77c-0.38,0.87-0.94,1.66-1.64,2.3c-1.43,1.32-3.31,2.04-5.25,2
			c-1.92,0.05-3.79-0.67-5.18-2c-1.33-1.32-2.05-3.13-2-5c-0.02-0.95,0.15-1.9,0.52-2.78c0.36-0.88,0.91-1.68,1.61-2.33
			c2.15-2.01,5.26-2.61,8-1.55c0.9,0.35,1.72,0.88,2.42,1.55c0.68,0.66,1.22,1.46,1.58,2.34C390.72,168.16,390.87,169.08,390.84,170
			z M387.62,245.91h-8.18c-0.21,0-0.41-0.04-0.6-0.12c-0.38-0.16-0.68-0.47-0.84-0.85c-0.07-0.19-0.11-0.4-0.11-0.6v-52.55
			c0-0.2,0.04-0.4,0.11-0.59c0.08-0.19,0.19-0.36,0.34-0.5c0.14-0.15,0.31-0.26,0.5-0.33c0.19-0.08,0.39-0.12,0.6-0.11h8.06
			c0.21-0.01,0.42,0.02,0.62,0.09c0.19,0.07,0.37,0.18,0.53,0.32c0.31,0.29,0.47,0.7,0.46,1.12v52.55c0.02,0.22,0,0.44-0.07,0.65
			c-0.07,0.2-0.18,0.39-0.33,0.55c-0.15,0.16-0.33,0.29-0.54,0.37c-0.2,0.09-0.42,0.13-0.64,0.12L387.62,245.91z"/>
		<path class="st3" d="M416.73,246.03h-8.05c-0.21,0-0.41-0.04-0.6-0.12c-0.19-0.08-0.36-0.19-0.51-0.34
			c-0.14-0.14-0.25-0.31-0.33-0.5c-0.07-0.19-0.11-0.4-0.11-0.6v-86c0-0.41,0.16-0.81,0.46-1.09c0.29-0.28,0.68-0.44,1.09-0.44h8.05
			c0.2,0,0.4,0.04,0.59,0.11c0.19,0.08,0.36,0.19,0.5,0.33c0.14,0.14,0.25,0.31,0.33,0.5c0.08,0.19,0.12,0.39,0.12,0.59v85.86
			c0.04,0.43-0.1,0.87-0.39,1.19c-0.14,0.16-0.32,0.29-0.52,0.37C417.16,245.98,416.95,246.03,416.73,246.03z"/>
		<path class="st3" d="M493.07,217.89c0.05,4.07-0.74,8.11-2.32,11.87c-2.98,7.19-8.81,12.82-16.1,15.53c-7.74,2.89-16.26,2.89-24,0
			c-3.6-1.36-6.89-3.43-9.66-6.1c-2.73-2.68-4.92-5.86-6.43-9.38c-3.09-7.6-3.09-16.11,0-23.71c1.49-3.51,3.68-6.67,6.45-9.29
			c2.77-2.64,6.05-4.68,9.64-6c7.74-2.89,16.26-2.89,24,0c3.58,1.38,6.86,3.44,9.66,6.06c2.75,2.6,4.94,5.74,6.44,9.22
			C492.32,209.82,493.11,213.84,493.07,217.89z M481.45,217.89c0.01-2.59-0.42-5.15-1.25-7.6c-0.78-2.35-2.02-4.52-3.65-6.38
			c-1.61-1.88-3.63-3.39-5.89-4.4c-5.14-2.23-10.96-2.23-16.1,0c-2.26,1.01-4.28,2.52-5.89,4.4c-1.62,1.87-2.86,4.04-3.64,6.38
			c-1.67,4.95-1.67,10.31,0,15.26c0.8,2.34,2.04,4.5,3.64,6.38c1.61,1.9,3.62,3.43,5.89,4.47c5.15,2.17,10.95,2.17,16.1,0
			c2.27-1.04,4.28-2.57,5.89-4.47c1.61-1.88,2.85-4.04,3.65-6.38c0.83-2.44,1.25-5,1.25-7.57V217.89z"/>
		<path class="st3" d="M532.84,199.19h-11.72c-0.41-0.01-0.81,0.15-1.1,0.44c-0.15,0.14-0.26,0.31-0.34,0.5
			c-0.07,0.19-0.11,0.39-0.11,0.59v27.44c-0.24,2.56,0.44,5.11,1.9,7.22c0.79,0.78,1.74,1.37,2.79,1.74
			c1.05,0.38,2.16,0.52,3.27,0.43c1.08-0.03,2.16-0.13,3.22-0.32l1.32-0.32c0.23-0.05,0.46-0.05,0.69,0
			c0.23,0.04,0.44,0.14,0.63,0.27c0.19,0.14,0.35,0.32,0.46,0.52c0.11,0.2,0.17,0.43,0.18,0.66l0.23,5.78
			c0.02,0.36-0.08,0.71-0.29,1c-0.2,0.28-0.48,0.49-0.81,0.6c-1.06,0.31-2.13,0.55-3.22,0.74c-1.65,0.28-3.32,0.42-5,0.41
			c-2.22,0.15-4.45-0.16-6.55-0.9c-2.09-0.75-4-1.92-5.62-3.44c-3.11-3.64-4.65-8.37-4.27-13.14v-28.72c0-0.2-0.04-0.4-0.12-0.58
			c-0.08-0.19-0.19-0.36-0.33-0.5c-0.14-0.14-0.31-0.25-0.5-0.33c-0.19-0.08-0.39-0.12-0.6-0.12h-7.69
			c-0.87,0.01-1.57-0.69-1.58-1.56c0,0,0,0,0,0v-5.81c0-0.2,0.04-0.4,0.12-0.59c0.08-0.19,0.2-0.36,0.35-0.5
			c0.14-0.15,0.32-0.26,0.51-0.33c0.19-0.08,0.39-0.12,0.6-0.11h7.69c0.41-0.01,0.81-0.18,1.1-0.47c0.29-0.29,0.45-0.69,0.45-1.1
			v-12.85c0-0.21,0.03-0.41,0.11-0.6c0.08-0.19,0.19-0.36,0.33-0.51c0.15-0.14,0.32-0.26,0.51-0.34c0.19-0.08,0.39-0.12,0.59-0.12
			h7.83c0.42,0,0.82,0.17,1.12,0.46c0.29,0.29,0.46,0.69,0.46,1.11v12.76c-0.01,0.2,0.03,0.4,0.1,0.59c0.08,0.19,0.2,0.36,0.34,0.51
			c0.14,0.15,0.31,0.26,0.5,0.34c0.19,0.08,0.39,0.12,0.6,0.12h11.85c0.21,0,0.41,0.03,0.6,0.11c0.19,0.08,0.36,0.19,0.51,0.33
			c0.14,0.14,0.25,0.31,0.33,0.5c0.08,0.19,0.11,0.39,0.11,0.59v6c0,0.2-0.04,0.4-0.12,0.59c-0.08,0.19-0.2,0.36-0.35,0.51
			c-0.15,0.14-0.32,0.25-0.51,0.32C533.23,199.18,533.03,199.2,532.84,199.19z"/>
	</g>
</g>
</svg>
